<svg width="1440" height="531" viewBox="0 0 1440 531" fill="none" xmlns="http://www.w3.org/2000/svg">
<g clip-path="url(#clip0_1_19)">
<path d="M11.8796 175.051V105.023H290.113V175.051H193.825V425.148H108.167V175.051H11.8796ZM296.41 425.148V105.023H527.125V175.051H383.319V230.072H515.246V300.099H383.319V355.121H526.5V425.148H296.41ZM626.975 425.148H533.188L638.854 105.023H757.651L863.317 425.148H769.53L699.503 193.183H697.002L626.975 425.148ZM609.468 298.849H785.787V363.874H609.468V298.849ZM1027.84 205.062C1027.01 194.642 1023.1 186.513 1016.12 180.678C1009.24 174.842 998.766 171.924 984.698 171.924C975.736 171.924 968.39 173.019 962.658 175.207C957.031 177.291 952.863 180.157 950.154 183.804C947.444 187.451 946.037 191.62 945.933 196.309C945.725 200.165 946.402 203.655 947.965 206.782C949.632 209.804 952.238 212.565 955.781 215.066C959.324 217.463 963.857 219.651 969.38 221.631C974.903 223.611 981.468 225.383 989.075 226.946L1015.34 232.573C1033.05 236.324 1048.21 241.274 1060.82 247.422C1073.43 253.571 1083.75 260.813 1091.77 269.15C1099.79 277.382 1105.68 286.656 1109.43 296.973C1113.29 307.289 1115.27 318.544 1115.37 330.736C1115.27 351.786 1110.01 369.605 1099.59 384.194C1089.17 398.783 1074.26 409.881 1054.88 417.489C1035.6 425.096 1012.42 428.899 985.323 428.899C957.5 428.899 933.22 424.783 912.483 416.551C891.85 408.318 875.802 395.657 864.339 378.567C852.98 361.373 847.249 339.385 847.145 312.604H929.677C930.198 322.4 932.647 330.632 937.023 337.301C941.4 343.97 947.548 349.024 955.468 352.463C963.492 355.902 973.027 357.622 984.073 357.622C993.347 357.622 1001.11 356.475 1007.36 354.183C1013.62 351.89 1018.36 348.712 1021.59 344.648C1024.82 340.584 1026.49 335.946 1026.59 330.736C1026.49 325.838 1024.87 321.566 1021.74 317.919C1018.72 314.167 1013.72 310.833 1006.74 307.915C999.756 304.893 990.325 302.079 978.446 299.474L946.558 292.596C918.214 286.448 895.862 276.184 879.501 261.803C863.245 247.318 855.169 227.571 855.273 202.561C855.169 182.241 860.587 164.474 871.529 149.259C882.575 133.941 897.842 122.009 917.328 113.464C936.919 104.919 959.376 100.647 984.698 100.647C1010.54 100.647 1032.89 104.971 1051.76 113.62C1070.62 122.27 1085.15 134.462 1095.37 150.197C1105.68 165.828 1110.89 184.117 1111 205.062H1027.84ZM1108.89 105.023H1205.81L1268.33 235.074H1270.83L1333.36 105.023H1430.27L1312.72 324.484V425.148H1226.44V324.484L1108.89 105.023Z" fill="black"/>
</g>
<defs>
<clipPath id="clip0_1_19">
<rect width="1440" height="531" fill="white"/>
</clipPath>
</defs>
</svg>
