<?xml version="1.0" encoding="UTF-8" standalone="no"?>
<svg
   xmlns:dc="http://purl.org/dc/elements/1.1/"
   xmlns:cc="http://creativecommons.org/ns#"
   xmlns:rdf="http://www.w3.org/1999/02/22-rdf-syntax-ns#"
   xmlns:svg="http://www.w3.org/2000/svg"
   xmlns="http://www.w3.org/2000/svg"
   xmlns:xlink="http://www.w3.org/1999/xlink"
   xmlns:sodipodi="http://sodipodi.sourceforge.net/DTD/sodipodi-0.dtd"
   xmlns:inkscape="http://www.inkscape.org/namespaces/inkscape"
   id="logo-darkfans"
   width="2000"
   height="458.25757"
   viewBox="0 0 1999.9999 458.25757"
   version="1.1"
   sodipodi:docname="logo-darkfans-dark.svg"
   inkscape:version="1.0.2-2 (e86c870879, 2021-01-15)"
   inkscape:export-filename="Z:\mis sitios web\ARTEMISA - ACADEMY - JUNIO 2024\images\logo-darkfans-dark.png"
   inkscape:export-xdpi="72"
   inkscape:export-ydpi="72">
  <metadata
     id="metadata42">
    <rdf:RDF>
      <cc:Work
         rdf:about="">
        <dc:format>image/svg+xml</dc:format>
        <dc:type
           rdf:resource="http://purl.org/dc/dcmitype/StillImage" />
        <dc:title />
      </cc:Work>
    </rdf:RDF>
  </metadata>
  <sodipodi:namedview
     pagecolor="#ffffff"
     bordercolor="#666666"
     borderopacity="1"
     objecttolerance="10"
     gridtolerance="10"
     guidetolerance="10"
     inkscape:pageopacity="0"
     inkscape:pageshadow="2"
     inkscape:window-width="1920"
     inkscape:window-height="1009"
     id="namedview40"
     showgrid="false"
     inkscape:pagecheckerboard="true"
     inkscape:zoom="0.92864651"
     inkscape:cx="87.287402"
     inkscape:cy="271.54588"
     inkscape:window-x="1272"
     inkscape:window-y="-8"
     inkscape:window-maximized="1"
     inkscape:current-layer="g862"
     inkscape:document-rotation="0"
     inkscape:snap-nodes="false" />
  <defs
     id="defs21">
    <linearGradient
       inkscape:collect="always"
       id="linearGradient868">
      <stop
         style="stop-color:#ffffff;stop-opacity:1"
         offset="0"
         id="stop864" />
      <stop
         style="stop-color:#939393;stop-opacity:1"
         offset="1"
         id="stop866" />
    </linearGradient>
    <linearGradient
       id="linear-gradient"
       x1="5.6810002"
       y1="401.03201"
       x2="6.5879998"
       y2="401.02301"
       gradientUnits="objectBoundingBox">
      <stop
         offset="0"
         stop-color="#e5e5e5"
         id="stop2" />
      <stop
         offset="1"
         stop-color="#fff"
         id="stop4" />
    </linearGradient>
    <linearGradient
       id="linear-gradient-3"
       x1="93.065498"
       y1="354.20129"
       x2="65.72966"
       y2="354.63516"
       gradientUnits="userSpaceOnUse"
       gradientTransform="matrix(0.82732645,0,0,1.2087128,1.3209999,15.691)">
      <stop
         offset="0"
         stop-color="#fff"
         id="stop7" />
      <stop
         offset="1"
         stop-color="#ededed"
         id="stop9" />
    </linearGradient>
    <linearGradient
       id="linear-gradient-4"
       x1="-31.1049"
       y1="28.773005"
       x2="130.21352"
       y2="142.73558"
       gradientUnits="userSpaceOnUse"
       gradientTransform="matrix(1.0160107,0,0,0.98424163,-0.11700008,-0.104)">
      <stop
         offset="0"
         stop-color="#fff"
         id="stop14" />
      <stop
         offset="1"
         stop-color="#f4f4f4"
         id="stop16" />
    </linearGradient>
    <linearGradient
       inkscape:collect="always"
       xlink:href="#linearGradient868"
       id="linearGradient870"
       x1="0.0146236"
       y1="229.13617"
       x2="390.48197"
       y2="229.13617"
       gradientUnits="userSpaceOnUse" />
    <linearGradient
       inkscape:collect="always"
       xlink:href="#linearGradient868"
       id="linearGradient872"
       gradientUnits="userSpaceOnUse"
       x1="32.319706"
       y1="126.83675"
       x2="457.24582"
       y2="212.98364" />
  </defs>
  <path
     id="path917-4-9-6-8-2-6-1-5"
     d="m 1283.1699,328.52633 a 8.5112865,8.5112865 0 0 1 -6.6899,-2.81801 10.802346,10.802346 0 0 1 -2.2339,-7.34284 V 160.52291 a 31.124046,31.124046 0 0 1 8.9238,-23.71246 34.365895,34.365895 0 0 1 25.0985,-8.75185 h 86.4645 q 9.4851,0 9.4851,7.90415 0,7.34285 -9.4851,7.34285 h -87.3008 a 14.055651,14.055651 0 0 0 -11.1574,4.79977 16.759101,16.759101 0 0 0 -4.1812,11.85624 v 59.85392 h 81.4357 q 9.485,0 9.485,7.90417 a 6.7700814,6.7700814 0 0 1 -2.5087,5.64745 11.008542,11.008542 0 0 1 -6.9763,1.98177 h -81.4357 v 83.0051 a 10.011931,10.011931 0 0 1 -2.5087,7.34284 7.6979606,7.6979606 0 0 1 -6.4149,2.81801 z"
     fill="#ffffff"
     style="stroke-width:1" />
  <path
     id="path919-9-7-8-4-8-1-1-6"
     d="m 1449.6726,328.51487 a 7.6979606,7.6979606 0 0 1 -6.415,-2.81801 10.802346,10.802346 0 0 1 -2.2338,-7.34284 V 205.69115 a 80.336009,80.336009 0 0 1 20.9174,-59.00624 77.655469,77.655469 0 0 1 58.296,-21.45577 77.277444,77.277444 0 0 1 58.0211,21.45577 80.313098,80.313098 0 0 1 21.1924,59.00624 v 112.66287 a 10.011931,10.011931 0 0 1 -2.5088,7.34284 7.6979606,7.6979606 0 0 1 -6.415,2.81801 8.5112865,8.5112865 0 0 1 -6.6898,-2.81801 10.011931,10.011931 0 0 1 -2.5088,-7.34284 v -66.92186 h -122.457 v 66.92186 a 10.011931,10.011931 0 0 1 -2.5089,7.34284 8.018709,8.018709 0 0 1 -6.6898,2.81801 z m 131.6442,-92.3297 v -31.34171 a 65.59304,65.59304 0 0 0 -15.8999,-47.15001 59.49882,59.49882 0 0 0 -45.1797,-16.65601 60.25487,60.25487 0 0 0 -45.741,16.65601 65.696137,65.696137 0 0 0 -15.6135,47.15001 v 31.34171 z"
     fill="#ffffff"
     style="stroke-width:1" />
  <path
     id="path921-8-0-2-57-9-23-6-9"
     d="m 1652.9927,328.51487 a 8.5112865,8.5112865 0 0 1 -6.6898,-2.81801 10.802346,10.802346 0 0 1 -2.2338,-7.34284 V 201.50998 a 73.31391,73.31391 0 0 1 21.4786,-55.90187 82.535429,82.535429 0 0 1 59.1322,-20.33315 82.13449,82.13449 0 0 1 58.8459,20.33315 73.31391,73.31391 0 0 1 21.4787,55.90187 v 116.84404 q 0,10.16085 -8.9237,10.16085 a 8.5112865,8.5112865 0 0 1 -6.6899,-2.81801 10.790891,10.790891 0 0 1 -2.2338,-7.34284 V 200.61647 a 57.276493,57.276493 0 0 0 -16.4613,-43.75925 63.107239,63.107239 0 0 0 -46.0159,-15.80831 64.722437,64.722437 0 0 0 -46.3023,15.80831 57.826348,57.826348 0 0 0 -16.4498,43.75925 v 117.73755 a 10.011931,10.011931 0 0 1 -2.5087,7.34284 7.6979606,7.6979606 0 0 1 -6.4149,2.81801 z"
     fill="#ffffff"
     style="stroke-width:1" />
  <path
     id="path923-6-4-2-2-1-7-65-1-4"
     d="m 1927.7136,328.51487 a 125.41261,125.41261 0 0 1 -48.811,-9.31316 77.013972,77.013972 0 0 1 -33.4723,-25.13293 8.3050914,8.3050914 0 0 1 1.9473,-11.85623 6.6326179,6.6326179 0 0 1 3.9063,-1.409 11.386567,11.386567 0 0 1 8.0874,4.79976 71.916364,71.916364 0 0 0 28.4436,19.7604 110.19997,110.19997 0 0 0 39.8873,6.78153 69.957508,69.957508 0 0 0 39.8873,-9.59954 31.353153,31.353153 0 0 0 14.2275,-27.66455 28.638247,28.638247 0 0 0 -13.3913,-24.56015 126.81016,126.81016 0 0 0 -45.1796,-16.656 149.7322,149.7322 0 0 1 -57.7347,-22.30347 43.037557,43.037557 0 0 1 -17.286,-35.62598 42.888638,42.888638 0 0 1 19.2448,-36.98916 89.626253,89.626253 0 0 1 52.4309,-13.55161 112.26193,112.26193 0 0 1 46.016,9.03822 56.440255,56.440255 0 0 1 28.4549,24.3196 11.30638,11.30638 0 0 1 1.3975,4.79978 7.6635948,7.6635948 0 0 1 -4.1811,6.78153 8.5341975,8.5341975 0 0 1 -3.9063,0.84767 9.4391657,9.4391657 0 0 1 -8.6487,-4.51338 47.814416,47.814416 0 0 0 -22.9106,-18.63778 91.310188,91.310188 0 0 0 -36.2102,-6.46079 74.837465,74.837465 0 0 0 -40.4373,8.75186 28.512238,28.512238 0 0 0 -13.1162,25.61404 27.870741,27.870741 0 0 0 5.3038,17.18294 42.98028,42.98028 0 0 0 17.5724,12.429 215.10759,215.10759 0 0 0 34.3086,10.44724 157.53327,157.53327 0 0 1 58.296,23.43754 42.831361,42.831361 0 0 1 18.1337,35.58016 46.164853,46.164853 0 0 1 -19.4739,39.24585 86.189665,86.189665 0 0 1 -52.6945,14.39931 z"
     fill="#ffffff"
     style="stroke-width:1" />
  <path
     id="path926-4-8-8-3-4-4-3-6"
     d="M 501.2999,326.2009 A 45.947202,45.947202 0 0 1 468.29719,315.00906 41.239075,41.239075 0 0 1 456.55551,283.67883 V 171.80638 a 40.620489,40.620489 0 0 1 11.19182,-30.48254 43.988346,43.988346 0 0 1 31.60517,-10.90545 h 39.15421 a 123.12155,123.12155 0 0 1 55.6613,11.74168 81.699192,81.699192 0 0 1 35.7978,33.83895 104.51815,104.51815 0 0 1 12.60083,52.57982 104.51815,104.51815 0 0 1 -12.60083,52.57982 82.145943,82.145943 0 0 1 -35.7978,33.56403 124.53056,124.53056 0 0 1 -55.6613,11.4553 z m 34.3659,-28.81008 a 71.515429,71.515429 0 0 0 52.01851,-16.78201 70.78229,70.78229 0 0 0 17.10275,-51.9956 70.072061,70.072061 0 0 0 -17.34332,-52.01851 69.659671,69.659671 0 0 0 -51.74358,-17.34332 h -29.92124 a 11.592762,11.592762 0 0 0 -8.94659,3.63132 15.109539,15.109539 0 0 0 -3.08147,10.06922 V 283.7132 a 15.109539,15.109539 0 0 0 3.08147,10.0692 11.592762,11.592762 0 0 0 8.94659,3.63133 z"
     fill="#ff0000"
     style="stroke-width:1" />
  <path
     id="path928-7-3-7-5-2-5-0-3"
     d="m 688.13582,328.72107 a 19.474007,19.474007 0 0 1 -13.42562,-4.47903 15.613572,15.613572 0 0 1 -5.02887,-12.303 v -97.89697 a 85.215967,85.215967 0 0 1 23.21989,-63.48526 87.942326,87.942326 0 0 1 64.60789,-22.91061 100.39424,100.39424 0 0 1 46.96672,10.30978 69.877322,69.877322 0 0 1 30.2076,29.9327 95.319535,95.319535 0 0 1 10.63053,46.15339 v 97.87408 a 15.625027,15.625027 0 0 1 -5.0289,12.30298 19.474007,19.474007 0 0 1 -13.42555,4.47902 20.550806,20.550806 0 0 1 -13.74638,-4.47902 16.163426,16.163426 0 0 1 -4.98306,-12.30298 v -45.5921 H 706.87669 v 45.5921 a 15.751035,15.751035 0 0 1 -5.31526,12.30298 19.474007,19.474007 0 0 1 -13.42561,4.47902 z m 119.9828,-91.18419 v -24.33104 a 60.105951,60.105951 0 0 0 -12.8643,-41.94931 47.722774,47.722774 0 0 0 -37.80249,-14.26184 q -50.62097,0 -50.62097,56.2226 v 24.33105 z"
     fill="#ff0000"
     style="stroke-width:1" />
  <path
     id="path930-5-8-9-4-0-58-5-4"
     d="m 875.24661,171.80638 a 40.620489,40.620489 0 0 1 11.19184,-30.48254 43.988346,43.988346 0 0 1 31.60522,-10.90545 h 49.78474 a 102.6853,102.6853 0 0 1 62.93539,16.2207 57.058842,57.058842 0 0 1 21.261,48.38719 60.907822,60.907822 0 0 1 -17.9046,46.70325 66.097073,66.097073 0 0 1 -47.52804,16.782 l 42.48764,42.27005 a 15.796857,15.796857 0 0 1 5.0289,11.45531 15.086628,15.086628 0 0 1 -5.8765,11.74168 18.22538,18.22538 0 0 1 -26.8398,-2.57744 l -60.41526,-61.85862 h -28.52367 v 52.69438 a 15.224091,15.224091 0 0 1 -5.31527,12.30299 20.126959,20.126959 0 0 1 -13.42563,4.47902 19.474007,19.474007 0 0 1 -13.42555,-4.47902 15.625027,15.625027 0 0 1 -5.04041,-12.30299 z m 91.45919,59.01769 a 90.221935,90.221935 0 0 0 28.81004,-3.63131 25.304754,25.304754 0 0 0 14.54826,-11.19184 42.22423,42.22423 0 0 0 4.479,-20.97464 31.353153,31.353153 0 0 0 -11.7417,-27.41254 61.652417,61.652417 0 0 0 -36.08418,-8.38527 h -42.23567 a 11.592762,11.592762 0 0 0 -8.94661,3.63133 15.109539,15.109539 0 0 0 -3.08147,10.0692 v 57.89507 z"
     fill="#ff0000"
     style="stroke-width:1" />
  <path
     id="path932-2-8-2-2-9-48-9-4"
     d="m 1231.3002,328.99599 q -17.6182,0 -19.8634,-12.30299 a 109.97087,109.97087 0 0 0 -20.9747,-49.78472 133.56878,133.56878 0 0 0 -45.0308,-35.2365 l -27.6874,22.91059 v 57.62015 a 15.751035,15.751035 0 0 1 -5.3153,12.30299 22.372198,22.372198 0 0 1 -26.8512,0 15.625027,15.625027 0 0 1 -5.0288,-12.30299 V 144.40531 a 15.625027,15.625027 0 0 1 5.0403,-12.33736 19.474007,19.474007 0 0 1 13.4599,-4.44465 18.752323,18.752323 0 0 1 13.4256,4.75394 14.891888,14.891888 0 0 1 5.3152,12.02807 v 69.64821 l 93.4181,-81.38989 a 16.575817,16.575817 0 0 1 11.7416,-4.75395 15.705215,15.705215 0 0 1 11.7417,5.31526 16.988208,16.988208 0 0 1 5.258,10.89398 16.220703,16.220703 0 0 1 -6.7128,11.74168 l -64.31,55.94769 a 129.15849,129.15849 0 0 1 53.416,41.11306 117.81775,117.81775 0 0 1 24.0561,58.18147 15.899954,15.899954 0 0 1 -3.6314,12.60082 14.319124,14.319124 0 0 1 -11.4551,5.31526 z"
     fill="#ff0000"
     style="stroke-width:1" />
  <g
     id="g862"
     style="fill:url(#linearGradient870);fill-opacity:1">
    <path
       id="Unión_15"
       data-name="Unión 15"
       d="m 108.09678,458.22322 v 0 C 71.760576,458.03993 42.102808,439.5167 33.637343,408.61032 a 127.15381,127.15381 0 0 1 3.803159,-63.31344 l -2.531621,-1.24863 C 12.456496,328.93871 8.149304,300.33483 6.2019033,284.68689 4.4721532,270.69998 14.495539,242.55431 20.48666,221.68275 A 158.23203,158.23203 0 0 1 84.143754,4.0320829 17.778624,17.778624 0 0 1 87.878179,2.5314388 11.455299,11.455299 0 0 1 90.627452,2.0961375 C 96.355101,1.9701291 98.016121,7.2739323 95.209574,11.432207 50.362078,66.452004 65.322699,149.90385 78.81704,146.06633 c 35.96963,-3.32204 73.72629,5.72765 97.04929,37.58484 13.838,18.8325 25.20165,14.09001 34.78974,-0.30931 a 102.46765,102.46765 0 0 1 88.2058,-39.78424 c 28.76424,3.08147 19.45109,-82.031394 -22.52113,-134.1300918 -3.52822,-4.6737615 -1.3288,-10.9741757 6.75864,-9.06114083 a 21.169391,21.169391 0 0 1 3.80316,1.35172523 C 360.69757,39.841346 405.45342,129.18122 363.33229,217.87959 c 7.21684,20.74554 18.87832,48.6392 17.9619,62.67194 -1.03097,15.67085 -3.59697,44.35492 -25.20165,59.94559 l -49.9451,26.48464 a 333.88758,333.88758 0 0 1 -96.46507,-91.1269 26.690846,26.690846 0 0 0 -16.39253,-8.24782 25.602592,25.602592 0 0 0 -15.91142,8.60294 321.47004,321.47004 0 0 1 -87.988144,91.29872 63.427989,63.427989 0 0 0 -22.841861,36.43931 c -3.07002,19.31363 19.336539,29.14228 42.693895,28.8559 51.30828,-2.90965 95.62883,-87.27792 233.85992,-9.16425 2.94401,-6.1744 0.92789,-9.74845 0.0808,-18.3972 a 156.2159,156.2159 0 0 0 47.29894,45.42026 219.40334,219.40334 0 0 1 -66.44074,-4.26138 c 6.18553,-3.51677 12.90979,-6.35768 15.29249,-14.89188 -55.1458,-25.98062 -77.24308,-24.23941 -116.37438,-20.00095 -40.96415,4.47902 -73.39409,46.71471 -114.53007,46.71471 z M 93.078889,271.71949 c 21.765061,6.6899 51.548831,4.0781 66.211621,-15.84267 -8.15618,-15.89995 -25.2933,-34.14824 -62.22518,-33.07145 a 252.44042,252.44042 0 0 0 -32.166477,3.95208 l -16.690371,-6.04839 a 68.044473,68.044473 0 0 0 44.870407,51.01043 z M 226.67057,255.13223 c 15.87705,19.57711 45.69518,21.53596 67.10514,14.36494 a 64.791168,64.791168 0 0 0 41.84621,-51.94978 l -16.35817,6.40352 a 254.20453,254.20453 0 0 0 -32.37267,-3.24185 h -0.74466 c -36.49658,0 -52.37361,18.46594 -59.47591,34.42317 z"
       fill="url(#linear-gradient)"
       style="fill:url(#linearGradient872);fill-opacity:1;stroke-width:1" />
    <path
       id="path1919-1-1"
       d="m 108.10823,458.2232 c 41.30781,0.22914 73.7263,-42.22422 114.7821,-46.68034 8.51088,-0.92434 16.21598,-1.72892 23.6308,-2.15504 26.67703,-1.53312 49.59672,1.83252 92.76649,22.14454 -2.38271,8.52274 -9.16425,11.32929 -15.30429,14.89189 21.80008,4.79953 44.20546,6.24043 66.44074,4.27283 -18.77333,-11.63456 -34.87615,-27.10497 -47.25312,-45.39736 0.84769,8.64875 2.87529,12.22282 -0.0686,18.38576 -138.20817,-78.11368 -182.55164,6.24314 -233.84846,9.16424 -5.86539,7.31943 -6.32846,17.5903 -1.14554,25.40786 z"
       fill="url(#linear-gradient)"
       style="fill:url(#linearGradient870);fill-opacity:1;stroke-width:1"
       sodipodi:nodetypes="ccscccccccc" />
  </g>
  <path
     id="path1919-6"
     d="m 37.692518,344.35754 a 127.99006,127.99006 0 0 0 -4.055175,64.25277 c 8.465465,30.92931 38.123233,49.41816 74.459437,49.61291 l 1.14553,-25.40787 c -23.368809,0.29788 -45.821192,-9.54226 -42.693895,-28.85589 a 63.702915,63.702915 0 0 1 23.036604,-36.65695 69.877322,69.877322 0 0 0 -51.926867,-22.9106 z"
     fill="url(#linear-gradient-3)"
     style="stroke-width:1;fill-opacity:1;fill:none" />
  <path
     id="path1083-7-50-1-2"
     d="M 90.615999,2.0961375 A 11.71877,11.71877 0 0 0 87.866725,2.5199834 19.920763,19.920763 0 0 0 84.132301,3.9518958 158.2664,158.2664 0 0 0 20.48666,221.65984 c -5.979665,20.89447 -16.0374174,49.02868 -14.2847567,63.00415 1.9474007,15.65939 6.2087717,44.25181 28.6955227,59.3499 l 51.468655,25.38494 c 37.401549,-22.76167 65.409759,-56.57772 91.046709,-93.18885 a 25.659869,25.659869 0 0 1 15.84268,-8.60294 26.816854,26.816854 0 0 1 16.40398,8.24782 333.78449,333.78449 0 0 0 96.46507,91.11544 l 49.9451,-26.48464 c 21.58179,-15.59066 24.15923,-44.26328 25.20166,-59.94559 0.91637,-14.02128 -10.75652,-41.90347 -17.9619,-62.66048 C 405.44197,129.16976 360.66321,39.841346 286.89108,1.7066572 A 20.436252,20.436252 0 0 0 283.06501,0.35493202 C 274.98903,-1.569558 272.75524,4.7423113 276.31784,9.4160735 318.24423,61.514771 327.61466,146.57037 298.79313,143.54616 a 102.51347,102.51347 0 0 0 -88.2058,39.79571 c -9.56517,14.3764 -20.96319,19.1418 -34.78973,0.30931 C 152.4517,151.81689 114.69504,142.75575 78.736854,146.05487 65.311243,149.89239 50.362078,66.406184 95.175207,11.42075 98.016121,7.262477 96.400921,1.9472185 90.593085,2.0961375 Z M 48.208482,220.70906 l 16.690371,6.04839 a 253.07045,253.07045 0 0 1 32.132109,-3.95208 c 36.943328,-1.07679 54.080458,17.18296 62.248088,33.07145 -14.73151,19.90931 -44.41218,22.53257 -66.234529,15.84267 A 68.044473,68.044473 0 0 1 48.208482,220.70906 Z M 335.5761,217.53593 a 64.779713,64.779713 0 0 1 -41.84621,51.97269 c -21.40996,7.17103 -51.22809,5.21217 -67.12805,-14.36494 7.2283,-16.03741 23.27717,-34.68664 60.25487,-34.42317 a 256.59869,256.59869 0 0 1 32.40704,3.2304 z"
     fill="url(#linear-gradient-4)"
     style="stroke-width:1;fill-opacity:1;fill:none" />
  <path
     id="path926-4-8-8-3-4-4-3-6-2"
     data-name="path926-4-8-8-3-4-4-3-6"
     d="M 501.2999,326.2009 A 45.947202,45.947202 0 0 1 468.29719,315.00906 41.239075,41.239075 0 0 1 456.55551,283.67883 V 171.80638 a 40.620489,40.620489 0 0 1 11.19182,-30.48254 43.988346,43.988346 0 0 1 31.60517,-10.90545 h 39.15421 a 123.12155,123.12155 0 0 1 55.6613,11.74168 81.699192,81.699192 0 0 1 35.7978,33.83895 104.51815,104.51815 0 0 1 12.60083,52.57982 104.51815,104.51815 0 0 1 -12.60083,52.57982 82.145943,82.145943 0 0 1 -35.7978,33.56403 124.53056,124.53056 0 0 1 -55.6613,11.4553 z m 34.3659,-28.81008 a 71.515429,71.515429 0 0 0 52.01851,-16.78201 70.78229,70.78229 0 0 0 17.10275,-51.9956 70.072061,70.072061 0 0 0 -17.34332,-52.01851 69.659671,69.659671 0 0 0 -51.74358,-17.34332 h -29.92124 a 11.592762,11.592762 0 0 0 -8.94659,3.63132 15.109539,15.109539 0 0 0 -3.08147,10.06922 V 283.7132 a 15.109539,15.109539 0 0 0 3.08147,10.0692 11.592762,11.592762 0 0 0 8.94659,3.63133 z"
     fill="#ff0000"
     style="stroke-width:1" />
  <path
     id="path928-7-3-7-5-2-5-0-3-2"
     data-name="path928-7-3-7-5-2-5-0-3"
     d="m 688.12437,328.72107 a 19.474007,19.474007 0 0 1 -13.42562,-4.47903 15.625027,15.625027 0 0 1 -5.02887,-12.303 v -97.89697 a 85.215967,85.215967 0 0 1 23.21988,-63.48526 87.95378,87.95378 0 0 1 64.60789,-22.91061 100.39424,100.39424 0 0 1 46.96672,10.30978 69.877322,69.877322 0 0 1 30.20763,29.9327 95.319535,95.319535 0 0 1 10.63053,46.15339 v 97.87408 a 15.613572,15.613572 0 0 1 -5.0289,12.30298 19.474007,19.474007 0 0 1 -13.42563,4.47902 20.550806,20.550806 0 0 1 -13.74634,-4.47902 16.163426,16.163426 0 0 1 -4.98304,-12.30298 v -45.5921 H 706.86523 v 45.5921 a 15.751035,15.751035 0 0 1 -5.31526,12.30298 19.474007,19.474007 0 0 1 -13.4256,4.47902 z m 119.98279,-91.18419 v -24.33104 a 60.105951,60.105951 0 0 0 -12.8643,-41.94931 47.722774,47.722774 0 0 0 -37.80249,-14.26184 q -50.62097,0 -50.62097,56.2226 v 24.33105 z"
     fill="#ff0000"
     style="stroke-width:1" />
  <path
     id="path930-5-8-9-4-0-58-5-4-2"
     data-name="path930-5-8-9-4-0-58-5-4"
     d="m 875.24661,171.80638 a 40.620489,40.620489 0 0 1 11.19184,-30.48254 43.988346,43.988346 0 0 1 31.60522,-10.90545 h 49.78474 a 102.69676,102.69676 0 0 1 62.93539,16.2207 57.058842,57.058842 0 0 1 21.261,48.38719 60.907822,60.907822 0 0 1 -17.9046,46.70325 66.097073,66.097073 0 0 1 -47.52804,16.782 l 42.48764,42.27005 a 15.796857,15.796857 0 0 1 5.0289,11.45531 15.086628,15.086628 0 0 1 -5.8765,11.74168 18.22538,18.22538 0 0 1 -26.8398,-2.57744 l -60.41526,-61.85862 h -28.52367 v 52.69438 a 15.224091,15.224091 0 0 1 -5.31527,12.30299 20.126959,20.126959 0 0 1 -13.42563,4.47902 19.474007,19.474007 0 0 1 -13.42555,-4.47902 15.625027,15.625027 0 0 1 -5.04041,-12.30299 z m 91.45919,59.01769 a 90.233388,90.233388 0 0 0 28.81004,-3.63131 25.304754,25.304754 0 0 0 14.54826,-11.19184 42.22423,42.22423 0 0 0 4.479,-20.97464 31.353153,31.353153 0 0 0 -11.7417,-27.41254 61.652417,61.652417 0 0 0 -36.08418,-8.38527 h -42.23567 a 11.592762,11.592762 0 0 0 -8.94661,3.63133 15.109539,15.109539 0 0 0 -3.08147,10.0692 v 57.89507 z"
     fill="#ff0000"
     style="stroke-width:1" />
  <path
     id="path932-2-8-2-2-9-48-9-4-2"
     data-name="path932-2-8-2-2-9-48-9-4"
     d="m 1231.3002,328.99599 q -17.6182,0 -19.8634,-12.30299 a 109.97087,109.97087 0 0 0 -20.9747,-49.78472 133.58024,133.58024 0 0 0 -45.0308,-35.2365 l -27.6874,22.91059 v 57.62015 a 15.751035,15.751035 0 0 1 -5.3153,12.30299 22.372198,22.372198 0 0 1 -26.8512,0 15.625027,15.625027 0 0 1 -5.0288,-12.30299 V 144.40531 a 15.625027,15.625027 0 0 1 5.0403,-12.33736 19.474007,19.474007 0 0 1 13.4599,-4.44465 18.752323,18.752323 0 0 1 13.4256,4.75394 14.891888,14.891888 0 0 1 5.3152,12.02807 v 69.64821 l 93.4181,-81.38989 a 16.575817,16.575817 0 0 1 11.7416,-4.75395 15.705215,15.705215 0 0 1 11.7417,5.31526 16.988208,16.988208 0 0 1 5.258,10.89398 16.220703,16.220703 0 0 1 -6.7128,11.74168 l -64.31,55.94769 a 129.15849,129.15849 0 0 1 53.416,41.11306 117.81775,117.81775 0 0 1 24.0561,58.18147 15.8885,15.8885 0 0 1 -3.6314,12.60082 14.319124,14.319124 0 0 1 -11.4551,5.31526 z"
     fill="#ff0000"
     style="stroke-width:1" />
</svg>
